<?xml version="1.0" standalone="no"?>
<!DOCTYPE svg PUBLIC "-//W3C//DTD SVG 20010904//EN"
 "http://www.w3.org/TR/2001/REC-SVG-20010904/DTD/svg10.dtd">
<svg version="1.0" xmlns="http://www.w3.org/2000/svg"
 width="187.000000pt" height="106.000000pt" viewBox="0 0 187.000000 106.000000"
 preserveAspectRatio="xMidYMid meet">
<metadata>
Created by potrace 1.10, written by Peter Selinger 2001-2011
</metadata>
<g transform="translate(0.000000,106.000000) scale(0.100000,-0.100000)"
fill="#000000" stroke="none">
<path d="M1456 784 c-68 -21 -147 -101 -171 -173 -23 -71 -17 -189 13 -247 64
-125 196 -172 350 -125 l71 21 3 130 3 130 -96 0 -96 0 0 -30 0 -30 64 0 63 0
0 -78 0 -79 -39 -11 c-113 -34 -218 7 -262 103 -25 54 -25 166 0 220 22 49 77
99 127 115 46 15 151 7 194 -15 l31 -16 -3 38 c-3 34 -6 39 -43 49 -55 17
-150 16 -209 -2z"/>
<path d="M120 510 l0 -280 36 0 36 0 -4 140 c-2 77 -3 140 -2 140 0 0 52 -63
115 -140 l114 -139 48 -1 47 0 -125 142 c-69 78 -125 145 -125 149 0 7 132
160 204 237 l30 32 -41 0 c-41 0 -43 -2 -149 -127 -58 -71 -109 -129 -113
-131 -3 -1 -5 56 -3 128 l3 130 -35 0 -36 0 0 -280z"/>
<path d="M580 511 l0 -281 36 0 36 0 -4 240 c-2 131 -3 238 -2 237 1 -1 14
-31 28 -67 80 -198 182 -410 196 -410 11 0 44 64 107 208 51 114 98 222 105
240 11 29 12 -2 9 -207 l-3 -241 36 0 36 0 0 280 0 280 -43 0 -42 0 -89 -197
c-49 -109 -94 -213 -99 -230 -11 -34 -27 -45 -27 -19 0 8 -42 111 -94 228
l-93 213 -47 3 -46 3 0 -280z"/>
</g>
</svg>
